<?xml version="1.0" encoding="UTF-8" standalone="no"?>
<!DOCTYPE svg PUBLIC "-//W3C//DTD SVG 1.1//EN" "http://www.w3.org/Graphics/SVG/1.1/DTD/svg11.dtd">
<svg width="100%" height="100%" viewBox="0 0 200 200" version="1.1" xmlns="http://www.w3.org/2000/svg" xmlns:xlink="http://www.w3.org/1999/xlink" xml:space="preserve" xmlns:serif="http://www.serif.com/" style="fill-rule:evenodd;clip-rule:evenodd;stroke-linecap:round;stroke-linejoin:round;stroke-miterlimit:1.5;">
    <g transform="matrix(1.20962,0,0,1.26018,-17.9381,-49.0811)">
        <path d="M21.1,169.622L170.653,169.622L21.1,169.622Z" style="fill:none;stroke:black;stroke-width:0.81px;"/>
    </g>
    <g transform="matrix(1.20962,0,0,1.26018,-17.9381,-49.0811)">
        <path d="M170.653,169.622C170.653,169.622 162.194,153.371 152.308,127.392C149.619,120.327 138.608,88.794 135.228,85.749C128.7,79.866 126.511,84.191 123.958,90.919C120.09,101.112 117.076,107.663 112.371,117.663C93.516,157.737 62.488,139.333 55.055,118.908C49.599,103.914 47.787,91.231 37.427,121.361C31.427,138.808 26.844,144.17 20,169.072" style="fill:rgb(255,151,151);stroke:rgb(214,6,6);stroke-width:0.81px;"/>
    </g>
    <g transform="matrix(-1.20962,0,0,1.26018,212.68,-49.0811)">
        <path d="M170.653,169.622C155.21,168.691 160.18,166.333 158.18,153.563C156.18,140.792 136.506,119.859 131.655,108.017C120.795,81.512 113.327,88.918 106.758,105.705C97.219,130.083 94.889,121.477 91.203,135.808C84.621,161.396 73.616,157.109 66.483,138.042C60.136,121.078 56.527,120.865 50.999,129.48C48.103,133.993 45.46,140.703 40.691,148.914C25.229,175.533 18.673,166.871 20,169.072" style="fill:rgb(151,255,175);stroke:rgb(13,114,0);stroke-width:0.81px;"/>
    </g>
    <g transform="matrix(1.20962,0,0,1.26018,-17.9381,-49.0811)">
        <path d="M170.653,169.622C139.767,167.761 122.681,156.239 111.311,133.309C100.727,111.963 99.976,113.992 86.529,136.357C46.745,202.528 69.925,51.571 20,169.072" style="fill:rgb(151,230,255);stroke:rgb(0,44,114);stroke-width:0.81px;"/>
    </g>
</svg>
